<svg width="51" height="51" viewBox="0 0 51 51" fill="none" xmlns="http://www.w3.org/2000/svg">
<path d="M38.5415 43.8308C35.3373 40.252 30.6818 38 25.5 38C20.3184 38 15.6623 40.252 12.458 43.8308M25.5 48C13.0736 48 3 37.9265 3 25.5C3 13.0736 13.0736 3 25.5 3C37.9265 3 48 13.0736 48 25.5C48 37.9265 37.9265 48 25.5 48ZM25.5 30.5C21.3577 30.5 18 27.1423 18 23C18 18.8579 21.3577 15.5 25.5 15.5C29.6423 15.5 33 18.8579 33 23C33 27.1423 29.6423 30.5 25.5 30.5Z" stroke="white" stroke-width="5" stroke-linecap="round" stroke-linejoin="round"/>
</svg>
