<svg width="24" height="24" viewBox="0 0 24 24" fill="none" xmlns="http://www.w3.org/2000/svg">
<path d="M11.5 21H6C5.46957 21 4.96086 20.7893 4.58579 20.4142C4.21071 20.0391 4 19.5304 4 19V7C4 6.46957 4.21071 5.96086 4.58579 5.58579C4.96086 5.21071 5.46957 5 6 5H18C18.5304 5 19.0391 5.21071 19.4142 5.58579C19.7893 5.96086 20 6.46957 20 7V11H4M16 3V7M8 3V7" stroke="white" stroke-width="2" stroke-linecap="round" stroke-linejoin="round"/>
<path d="M18.0001 21.9999L21.3501 18.7159C21.5556 18.5166 21.719 18.2781 21.8307 18.0145C21.9425 17.751 22.0003 17.4677 22.0007 17.1815C22.0012 16.8952 21.9443 16.6118 21.8334 16.3479C21.7225 16.084 21.5599 15.8449 21.3551 15.6449C20.9375 15.2358 20.3765 15.0061 19.7918 15.005C19.2072 15.0039 18.6453 15.2314 18.2261 15.6389L18.0021 15.8589L17.7791 15.6389C17.3615 15.2301 16.8007 15.0006 16.2163 14.9995C15.6319 14.9984 15.0703 15.2257 14.6511 15.6329C14.4456 15.8322 14.2821 16.0706 14.1703 16.3342C14.0585 16.5977 14.0006 16.8809 14 17.1672C13.9994 17.4534 14.0562 17.7369 14.167 18.0008C14.2778 18.2648 14.4404 18.5038 14.6451 18.7039L18.0001 21.9999Z" stroke="white" stroke-width="2" stroke-linecap="round" stroke-linejoin="round"/>
</svg>
