<svg width="84" height="84" viewBox="0 0 84 84" fill="none" xmlns="http://www.w3.org/2000/svg">
<circle cx="44.5" cy="43.5" r="28.5" fill="#4F7BB8"/>
<path d="M23.3677 38.9462C24.7108 39.6462 25.8921 41.0909 26.4748 43.1681C27.9947 48.6395 29.3466 48.0401 30.7151 44.6836C32.0827 41.496 33.0776 35.0044 36.9005 34.3892C43.4936 33.327 51.7046 54.7374 54.4398 54.1712C55.8075 53.9945 56.0673 51.3362 55.993 47.9334C55.9186 44.4867 55.1451 39.97 54.7067 35.7612C53.8825 27.8574 54.5938 21.8584 57.841 17.6837C53.9918 15.7631 49.6501 14.6825 45.0563 14.6825C30.8813 14.6825 19.1091 24.9664 16.793 38.4799C18.9717 37.9575 21.3701 37.8647 23.3677 38.9462Z" fill="white"/>
<mask id="mask0_260_2151" style="mask-type:luminance" maskUnits="userSpaceOnUse" x="10" y="11" width="64" height="62">
<path d="M10.2637 11.9603H73.7335V72.0361H10.2637V11.9603Z" fill="white"/>
</mask>
<g mask="url(#mask0_260_2151)">
<path d="M64.194 22.2813C64.4915 14.8517 66.938 11.9878 66.9424 12L66.9406 12.0009C66.7954 12.0945 58.888 18.5678 61.5322 42.6347C62.3084 49.6985 62.4247 61.5189 61.4535 64.0284C60.4822 66.5799 57.1677 67.1382 55.1447 65.3672C51.0979 61.8689 45.3614 50.9752 39.5855 41.6757C36.2106 36.6339 35.7521 40.8794 34.2935 44.8134C32.764 48.9364 31.133 54.5784 27.2042 52.4224C23.9169 50.6182 23.636 46.7034 22.173 43.857C20.5674 40.7315 16.1836 39.5162 10 41.8935C12.4176 41.6809 14.4704 41.8655 16.1346 42.3538C16.1215 42.7003 16.1154 43.0485 16.1154 43.3985C16.1154 59.236 28.9542 72.0749 44.7926 72.0749C60.6301 72.0749 73.4699 59.236 73.4699 43.3985C73.4699 35.0423 69.8955 27.5225 64.194 22.2813Z" fill="white"/>
</g>
</svg>
